<svg width="114" height="50" viewBox="0 0 114 50" fill="none" xmlns="http://www.w3.org/2000/svg">
<path fill-rule="evenodd" clip-rule="evenodd" d="M4.95717 18.3672L50.7571 0H62.7L109.043 18.3672H109.043L114 23.4375V50H0V23.4375L4.95652 18.3672H4.95717Z" fill="white"/>
<path d="M12.4856 41.4932L12.6256 33.3932H14.1556L15.3056 39.0032L16.5056 33.3932H17.9856L18.1356 41.4932H17.0356L16.9156 35.8632L15.7656 41.4932H14.8756L13.7056 35.8432L13.5956 41.4932H12.4856ZM20.9918 41.5832C20.5718 41.5832 20.2251 41.5066 19.9518 41.3532C19.6785 41.1932 19.4718 40.9632 19.3318 40.6632C19.1985 40.3632 19.1318 39.9999 19.1318 39.5732V37.6332C19.1318 37.2066 19.1985 36.8432 19.3318 36.5432C19.4718 36.2432 19.6785 36.0166 19.9518 35.8632C20.2251 35.7032 20.5718 35.6232 20.9918 35.6232C21.4118 35.6232 21.7585 35.7032 22.0318 35.8632C22.3118 36.0166 22.5185 36.2432 22.6518 36.5432C22.7918 36.8432 22.8618 37.2066 22.8618 37.6332V39.5732C22.8618 39.9999 22.7918 40.3632 22.6518 40.6632C22.5185 40.9632 22.3118 41.1932 22.0318 41.3532C21.7585 41.5066 21.4118 41.5832 20.9918 41.5832ZM21.0018 40.6432C21.1551 40.6432 21.2685 40.5999 21.3418 40.5132C21.4151 40.4266 21.4618 40.3099 21.4818 40.1632C21.5018 40.0099 21.5118 39.8432 21.5118 39.6632V37.5432C21.5118 37.3632 21.5018 37.1999 21.4818 37.0532C21.4618 36.9066 21.4151 36.7899 21.3418 36.7032C21.2685 36.6099 21.1551 36.5632 21.0018 36.5632C20.8485 36.5632 20.7351 36.6099 20.6618 36.7032C20.5885 36.7899 20.5385 36.9066 20.5118 37.0532C20.4918 37.1999 20.4818 37.3632 20.4818 37.5432V39.6632C20.4818 39.8432 20.4918 40.0099 20.5118 40.1632C20.5385 40.3099 20.5885 40.4266 20.6618 40.5132C20.7351 40.5999 20.8485 40.6432 21.0018 40.6432ZM23.7926 41.4932V35.7132H25.1526V36.2932C25.3592 36.0932 25.5759 35.9332 25.8026 35.8132C26.0359 35.6866 26.2859 35.6232 26.5526 35.6232C26.7926 35.6232 26.9826 35.6832 27.1226 35.8032C27.2626 35.9166 27.3659 36.0699 27.4326 36.2632C27.4992 36.4566 27.5326 36.6666 27.5326 36.8932V41.4932H26.1726V37.1632C26.1726 36.9899 26.1459 36.8566 26.0926 36.7632C26.0392 36.6699 25.9359 36.6232 25.7826 36.6232C25.6892 36.6232 25.5859 36.6499 25.4726 36.7032C25.3659 36.7566 25.2592 36.8232 25.1526 36.9032V41.4932H23.7926ZM30.2489 43.4032C29.8556 43.4032 29.5056 43.3599 29.1989 43.2732C28.8989 43.1932 28.6622 43.0699 28.4889 42.9032C28.3222 42.7366 28.2389 42.5232 28.2389 42.2632C28.2389 42.0632 28.2822 41.8866 28.3689 41.7332C28.4622 41.5799 28.5856 41.4499 28.7389 41.3432C28.8989 41.2299 29.0689 41.1399 29.2489 41.0732L29.8189 41.1632C29.7389 41.2299 29.6622 41.2999 29.5889 41.3732C29.5222 41.4466 29.4656 41.5232 29.4189 41.6032C29.3722 41.6832 29.3489 41.7732 29.3489 41.8732C29.3489 42.0332 29.4256 42.1532 29.5789 42.2332C29.7389 42.3132 30.0122 42.3532 30.3989 42.3532C30.7522 42.3532 31.0189 42.3166 31.1989 42.2432C31.3789 42.1699 31.4689 42.0432 31.4689 41.8632C31.4689 41.7566 31.4456 41.6699 31.3989 41.6032C31.3522 41.5432 31.2722 41.4932 31.1589 41.4532C31.0522 41.4132 30.8989 41.3832 30.6989 41.3632L29.3389 41.1932C29.0589 41.1532 28.8389 41.0566 28.6789 40.9032C28.5256 40.7432 28.4489 40.5566 28.4489 40.3432C28.4489 40.1032 28.5189 39.8932 28.6589 39.7132C28.8056 39.5266 28.9956 39.3332 29.2289 39.1332L29.6889 39.4332C29.6289 39.4999 29.5722 39.5766 29.5189 39.6632C29.4656 39.7432 29.4389 39.8299 29.4389 39.9232C29.4389 39.9966 29.4789 40.0566 29.5589 40.1032C29.6389 40.1499 29.7722 40.1832 29.9589 40.2032L31.1389 40.3432C31.6122 40.3899 31.9589 40.5399 32.1789 40.7932C32.4056 41.0399 32.5189 41.3766 32.5189 41.8032C32.5189 42.1566 32.4389 42.4499 32.2789 42.6832C32.1256 42.9232 31.8822 43.1032 31.5489 43.2232C31.2156 43.3432 30.7822 43.4032 30.2489 43.4032ZM30.3189 39.6632C29.8922 39.6632 29.5389 39.5799 29.2589 39.4132C28.9856 39.2466 28.7789 39.0132 28.6389 38.7132C28.4989 38.4132 28.4289 38.0599 28.4289 37.6532C28.4289 37.2132 28.5022 36.8432 28.6489 36.5432C28.7956 36.2366 29.0089 36.0066 29.2889 35.8532C29.5689 35.6999 29.9122 35.6232 30.3189 35.6232C30.7256 35.6232 31.0622 35.7099 31.3289 35.8832C31.5956 36.0566 31.7956 36.2966 31.9289 36.6032C32.0689 36.9099 32.1389 37.2632 32.1389 37.6632C32.1389 38.0699 32.0722 38.4232 31.9389 38.7232C31.8122 39.0232 31.6156 39.2566 31.3489 39.4232C31.0889 39.5832 30.7456 39.6632 30.3189 39.6632ZM30.3189 38.7932C30.4389 38.7932 30.5322 38.7699 30.5989 38.7232C30.6722 38.6766 30.7256 38.6066 30.7589 38.5132C30.7989 38.4199 30.8256 38.3032 30.8389 38.1632C30.8589 38.0166 30.8689 37.8466 30.8689 37.6532C30.8689 37.4532 30.8622 37.2832 30.8489 37.1432C30.8356 36.9966 30.8089 36.8766 30.7689 36.7832C30.7289 36.6832 30.6722 36.6099 30.5989 36.5632C30.5322 36.5166 30.4422 36.4932 30.3289 36.4932C30.2089 36.4932 30.1122 36.5166 30.0389 36.5632C29.9656 36.6099 29.9056 36.6799 29.8589 36.7732C29.8189 36.8666 29.7922 36.9866 29.7789 37.1332C29.7656 37.2799 29.7589 37.4532 29.7589 37.6532C29.7589 37.8332 29.7656 37.9966 29.7789 38.1432C29.7922 38.2832 29.8189 38.4032 29.8589 38.5032C29.8989 38.5966 29.9556 38.6699 30.0289 38.7232C30.1022 38.7699 30.1989 38.7932 30.3189 38.7932ZM31.8589 36.6532L31.5589 36.2332C31.6389 36.0866 31.7622 35.9499 31.9289 35.8232C32.0956 35.6966 32.2956 35.5799 32.5289 35.4732L32.8689 36.2132C32.7889 36.2332 32.6756 36.2699 32.5289 36.3232C32.3889 36.3766 32.2522 36.4366 32.1189 36.5032C31.9922 36.5632 31.9056 36.6132 31.8589 36.6532ZM34.9664 41.5832C34.5464 41.5832 34.1997 41.5066 33.9264 41.3532C33.6531 41.1932 33.4464 40.9632 33.3064 40.6632C33.1731 40.3632 33.1064 39.9999 33.1064 39.5732V37.6332C33.1064 37.2066 33.1731 36.8432 33.3064 36.5432C33.4464 36.2432 33.6531 36.0166 33.9264 35.8632C34.1997 35.7032 34.5464 35.6232 34.9664 35.6232C35.3864 35.6232 35.7331 35.7032 36.0064 35.8632C36.2864 36.0166 36.4931 36.2432 36.6264 36.5432C36.7664 36.8432 36.8364 37.2066 36.8364 37.6332V39.5732C36.8364 39.9999 36.7664 40.3632 36.6264 40.6632C36.4931 40.9632 36.2864 41.1932 36.0064 41.3532C35.7331 41.5066 35.3864 41.5832 34.9664 41.5832ZM34.9764 40.6432C35.1297 40.6432 35.2431 40.5999 35.3164 40.5132C35.3897 40.4266 35.4364 40.3099 35.4564 40.1632C35.4764 40.0099 35.4864 39.8432 35.4864 39.6632V37.5432C35.4864 37.3632 35.4764 37.1999 35.4564 37.0532C35.4364 36.9066 35.3897 36.7899 35.3164 36.7032C35.2431 36.6099 35.1297 36.5632 34.9764 36.5632C34.8231 36.5632 34.7097 36.6099 34.6364 36.7032C34.5631 36.7899 34.5131 36.9066 34.4864 37.0532C34.4664 37.1999 34.4564 37.3632 34.4564 37.5432V39.6632C34.4564 39.8432 34.4664 40.0099 34.4864 40.1632C34.5131 40.3099 34.5631 40.4266 34.6364 40.5132C34.7097 40.5999 34.8231 40.6432 34.9764 40.6432ZM37.8572 41.4932V33.3932H39.2072V41.4932H37.8572ZM40.3267 41.4932V35.7132H41.6867V41.4932H40.3267ZM40.3267 34.7932V33.6632H41.6867V34.7932H40.3267ZM43.7272 41.5832C43.4672 41.5832 43.2405 41.5166 43.0472 41.3832C42.8605 41.2432 42.7172 41.0699 42.6172 40.8632C42.5172 40.6499 42.4672 40.4299 42.4672 40.2032C42.4672 39.8432 42.5339 39.5399 42.6672 39.2932C42.8005 39.0466 42.9772 38.8399 43.1972 38.6732C43.4239 38.5066 43.6739 38.3632 43.9472 38.2432C44.2272 38.1166 44.5139 38.0032 44.8072 37.9032V37.4032C44.8072 37.2366 44.7939 37.0966 44.7672 36.9832C44.7472 36.8699 44.7039 36.7832 44.6372 36.7232C44.5705 36.6632 44.4739 36.6332 44.3472 36.6332C44.2272 36.6332 44.1305 36.6599 44.0572 36.7132C43.9905 36.7666 43.9405 36.8432 43.9072 36.9432C43.8805 37.0366 43.8672 37.1466 43.8672 37.2732L43.8472 37.6232L42.5472 37.5732C42.5739 36.9066 42.7405 36.4166 43.0472 36.1032C43.3539 35.7832 43.8239 35.6232 44.4572 35.6232C45.0372 35.6232 45.4605 35.7832 45.7272 36.1032C45.9939 36.4232 46.1272 36.8566 46.1272 37.4032V40.0732C46.1272 40.2866 46.1305 40.4799 46.1372 40.6532C46.1505 40.8266 46.1639 40.9832 46.1772 41.1232C46.1972 41.2632 46.2139 41.3866 46.2272 41.4932H44.9972C44.9772 41.3599 44.9539 41.2099 44.9272 41.0432C44.9005 40.8699 44.8805 40.7432 44.8672 40.6632C44.8005 40.8966 44.6739 41.1099 44.4872 41.3032C44.3005 41.4899 44.0472 41.5832 43.7272 41.5832ZM44.2272 40.5732C44.3139 40.5732 44.3939 40.5532 44.4672 40.5132C44.5405 40.4666 44.6072 40.4132 44.6672 40.3532C44.7272 40.2932 44.7739 40.2399 44.8072 40.1932V38.5832C44.6539 38.6699 44.5105 38.7566 44.3772 38.8432C44.2505 38.9299 44.1405 39.0266 44.0472 39.1332C43.9539 39.2332 43.8805 39.3432 43.8272 39.4632C43.7739 39.5832 43.7472 39.7232 43.7472 39.8832C43.7472 40.0966 43.7872 40.2666 43.8672 40.3932C43.9539 40.5132 44.0739 40.5732 44.2272 40.5732ZM49.6345 41.4932V33.3932H51.6245C51.9845 33.3932 52.3079 33.4266 52.5945 33.4932C52.8879 33.5599 53.1379 33.6732 53.3445 33.8332C53.5579 33.9866 53.7212 34.1966 53.8345 34.4632C53.9479 34.7299 54.0045 35.0666 54.0045 35.4732C54.0045 35.7999 53.9579 36.0799 53.8645 36.3132C53.7779 36.5466 53.6479 36.7332 53.4745 36.8732C53.3012 37.0066 53.0845 37.0966 52.8245 37.1432C53.1445 37.1966 53.4079 37.3099 53.6145 37.4832C53.8279 37.6499 53.9845 37.8699 54.0845 38.1432C54.1912 38.4166 54.2445 38.7466 54.2445 39.1332C54.2445 39.5199 54.1945 39.8632 54.0945 40.1632C54.0012 40.4566 53.8579 40.7032 53.6645 40.9032C53.4779 41.0966 53.2412 41.2432 52.9545 41.3432C52.6745 41.4432 52.3445 41.4932 51.9645 41.4932H49.6345ZM51.1145 40.4532H51.6745C52.1212 40.4532 52.4245 40.3466 52.5845 40.1332C52.7445 39.9132 52.8245 39.5766 52.8245 39.1232C52.8245 38.7966 52.7845 38.5332 52.7045 38.3332C52.6312 38.1266 52.5045 37.9732 52.3245 37.8732C52.1512 37.7732 51.9179 37.7232 51.6245 37.7232H51.1145V40.4532ZM51.1145 36.7032H51.6145C51.9079 36.7032 52.1345 36.6599 52.2945 36.5732C52.4545 36.4866 52.5645 36.3532 52.6245 36.1732C52.6912 35.9932 52.7245 35.7666 52.7245 35.4932C52.7245 35.2066 52.6745 34.9866 52.5745 34.8332C52.4812 34.6732 52.3379 34.5666 52.1445 34.5132C51.9512 34.4532 51.7045 34.4232 51.4045 34.4232H51.1145V36.7032ZM56.0709 41.5832C55.8109 41.5832 55.5843 41.5166 55.3909 41.3832C55.2043 41.2432 55.0609 41.0699 54.9609 40.8632C54.8609 40.6499 54.8109 40.4299 54.8109 40.2032C54.8109 39.8432 54.8776 39.5399 55.0109 39.2932C55.1443 39.0466 55.3209 38.8399 55.5409 38.6732C55.7676 38.5066 56.0176 38.3632 56.2909 38.2432C56.5709 38.1166 56.8576 38.0032 57.1509 37.9032V37.4032C57.1509 37.2366 57.1376 37.0966 57.1109 36.9832C57.0909 36.8699 57.0476 36.7832 56.9809 36.7232C56.9143 36.6632 56.8176 36.6332 56.6909 36.6332C56.5709 36.6332 56.4743 36.6599 56.4009 36.7132C56.3343 36.7666 56.2843 36.8432 56.2509 36.9432C56.2243 37.0366 56.2109 37.1466 56.2109 37.2732L56.1909 37.6232L54.8909 37.5732C54.9176 36.9066 55.0843 36.4166 55.3909 36.1032C55.6976 35.7832 56.1676 35.6232 56.8009 35.6232C57.3809 35.6232 57.8043 35.7832 58.0709 36.1032C58.3376 36.4232 58.4709 36.8566 58.4709 37.4032V40.0732C58.4709 40.2866 58.4743 40.4799 58.4809 40.6532C58.4943 40.8266 58.5076 40.9832 58.5209 41.1232C58.5409 41.2632 58.5576 41.3866 58.5709 41.4932H57.3409C57.3209 41.3599 57.2976 41.2099 57.2709 41.0432C57.2443 40.8699 57.2243 40.7432 57.2109 40.6632C57.1443 40.8966 57.0176 41.1099 56.8309 41.3032C56.6443 41.4899 56.3909 41.5832 56.0709 41.5832ZM56.5709 40.5732C56.6576 40.5732 56.7376 40.5532 56.8109 40.5132C56.8843 40.4666 56.9509 40.4132 57.0109 40.3532C57.0709 40.2932 57.1176 40.2399 57.1509 40.1932V38.5832C56.9976 38.6699 56.8543 38.7566 56.7209 38.8432C56.5943 38.9299 56.4843 39.0266 56.3909 39.1332C56.2976 39.2332 56.2243 39.3432 56.1709 39.4632C56.1176 39.5832 56.0909 39.7232 56.0909 39.8832C56.0909 40.0966 56.1309 40.2666 56.2109 40.3932C56.2976 40.5132 56.4176 40.5732 56.5709 40.5732ZM59.5466 41.4932V33.3932H60.8966V41.4932H59.5466ZM62.0662 41.4932V33.3932H63.4162V41.4932H62.0662ZM66.2457 41.5832C65.8257 41.5832 65.479 41.5066 65.2057 41.3532C64.9324 41.1932 64.7257 40.9632 64.5857 40.6632C64.4524 40.3632 64.3857 39.9999 64.3857 39.5732V37.6332C64.3857 37.2066 64.4524 36.8432 64.5857 36.5432C64.7257 36.2432 64.9324 36.0166 65.2057 35.8632C65.479 35.7032 65.8257 35.6232 66.2457 35.6232C66.6657 35.6232 67.0124 35.7032 67.2857 35.8632C67.5657 36.0166 67.7724 36.2432 67.9057 36.5432C68.0457 36.8432 68.1157 37.2066 68.1157 37.6332V39.5732C68.1157 39.9999 68.0457 40.3632 67.9057 40.6632C67.7724 40.9632 67.5657 41.1932 67.2857 41.3532C67.0124 41.5066 66.6657 41.5832 66.2457 41.5832ZM66.2557 40.6432C66.409 40.6432 66.5224 40.5999 66.5957 40.5132C66.669 40.4266 66.7157 40.3099 66.7357 40.1632C66.7557 40.0099 66.7657 39.8432 66.7657 39.6632V37.5432C66.7657 37.3632 66.7557 37.1999 66.7357 37.0532C66.7157 36.9066 66.669 36.7899 66.5957 36.7032C66.5224 36.6099 66.409 36.5632 66.2557 36.5632C66.1024 36.5632 65.989 36.6099 65.9157 36.7032C65.8424 36.7899 65.7924 36.9066 65.7657 37.0532C65.7457 37.1999 65.7357 37.3632 65.7357 37.5432V39.6632C65.7357 39.8432 65.7457 40.0099 65.7657 40.1632C65.7924 40.3099 65.8424 40.4266 65.9157 40.5132C65.989 40.5999 66.1024 40.6432 66.2557 40.6432ZM70.7965 41.5832C70.3765 41.5832 70.0298 41.5066 69.7565 41.3532C69.4832 41.1932 69.2765 40.9632 69.1365 40.6632C69.0032 40.3632 68.9365 39.9999 68.9365 39.5732V37.6332C68.9365 37.2066 69.0032 36.8432 69.1365 36.5432C69.2765 36.2432 69.4832 36.0166 69.7565 35.8632C70.0298 35.7032 70.3765 35.6232 70.7965 35.6232C71.2165 35.6232 71.5632 35.7032 71.8365 35.8632C72.1165 36.0166 72.3232 36.2432 72.4565 36.5432C72.5965 36.8432 72.6665 37.2066 72.6665 37.6332V39.5732C72.6665 39.9999 72.5965 40.3632 72.4565 40.6632C72.3232 40.9632 72.1165 41.1932 71.8365 41.3532C71.5632 41.5066 71.2165 41.5832 70.7965 41.5832ZM70.8065 40.6432C70.9598 40.6432 71.0732 40.5999 71.1465 40.5132C71.2198 40.4266 71.2665 40.3099 71.2865 40.1632C71.3065 40.0099 71.3165 39.8432 71.3165 39.6632V37.5432C71.3165 37.3632 71.3065 37.1999 71.2865 37.0532C71.2665 36.9066 71.2198 36.7899 71.1465 36.7032C71.0732 36.6099 70.9598 36.5632 70.8065 36.5632C70.6532 36.5632 70.5398 36.6099 70.4665 36.7032C70.3932 36.7899 70.3432 36.9066 70.3165 37.0532C70.2965 37.1999 70.2865 37.3632 70.2865 37.5432V39.6632C70.2865 39.8432 70.2965 40.0099 70.3165 40.1632C70.3432 40.3099 70.3932 40.4266 70.4665 40.5132C70.5398 40.5999 70.6532 40.6432 70.8065 40.6432ZM73.5973 41.4932V35.7132H74.9573V36.2932C75.1639 36.0932 75.3806 35.9332 75.6073 35.8132C75.8406 35.6866 76.0906 35.6232 76.3573 35.6232C76.5973 35.6232 76.7873 35.6832 76.9273 35.8032C77.0673 35.9166 77.1706 36.0699 77.2373 36.2632C77.3039 36.4566 77.3373 36.6666 77.3373 36.8932V41.4932H75.9773V37.1632C75.9773 36.9899 75.9506 36.8566 75.8973 36.7632C75.8439 36.6699 75.7406 36.6232 75.5873 36.6232C75.4939 36.6232 75.3906 36.6499 75.2773 36.7032C75.1706 36.7566 75.0639 36.8232 74.9573 36.9032V41.4932H73.5973ZM83.0352 41.6032C82.4419 41.6032 81.9752 41.4866 81.6352 41.2532C81.3019 41.0199 81.0686 40.7032 80.9352 40.3032C80.8019 39.8966 80.7352 39.4299 80.7352 38.9032V36.0132C80.7352 35.4599 80.8019 34.9799 80.9352 34.5732C81.0686 34.1666 81.3019 33.8532 81.6352 33.6332C81.9752 33.4132 82.4419 33.3032 83.0352 33.3032C83.5952 33.3032 84.0319 33.3999 84.3452 33.5932C84.6652 33.7799 84.8919 34.0499 85.0252 34.4032C85.1586 34.7566 85.2252 35.1666 85.2252 35.6332V36.3132H83.8052V35.6132C83.8052 35.3866 83.7919 35.1799 83.7652 34.9932C83.7452 34.8066 83.6819 34.6599 83.5752 34.5532C83.4752 34.4399 83.2986 34.3832 83.0452 34.3832C82.7919 34.3832 82.6052 34.4432 82.4852 34.5632C82.3719 34.6766 82.2986 34.8332 82.2652 35.0332C82.2319 35.2266 82.2152 35.4466 82.2152 35.6932V39.2132C82.2152 39.5066 82.2386 39.7499 82.2852 39.9432C82.3319 40.1299 82.4152 40.2732 82.5352 40.3732C82.6619 40.4666 82.8319 40.5132 83.0452 40.5132C83.2919 40.5132 83.4652 40.4566 83.5652 40.3432C83.6719 40.2232 83.7386 40.0666 83.7652 39.8732C83.7919 39.6799 83.8052 39.4632 83.8052 39.2232V38.4932H85.2252V39.1432C85.2252 39.6232 85.1619 40.0499 85.0352 40.4232C84.9086 40.7899 84.6852 41.0799 84.3652 41.2932C84.0519 41.4999 83.6086 41.6032 83.0352 41.6032ZM87.1256 41.5832C86.8656 41.5832 86.639 41.5166 86.4456 41.3832C86.259 41.2432 86.1156 41.0699 86.0156 40.8632C85.9156 40.6499 85.8656 40.4299 85.8656 40.2032C85.8656 39.8432 85.9323 39.5399 86.0656 39.2932C86.199 39.0466 86.3756 38.8399 86.5956 38.6732C86.8223 38.5066 87.0723 38.3632 87.3456 38.2432C87.6256 38.1166 87.9123 38.0032 88.2056 37.9032V37.4032C88.2056 37.2366 88.1923 37.0966 88.1656 36.9832C88.1456 36.8699 88.1023 36.7832 88.0356 36.7232C87.969 36.6632 87.8723 36.6332 87.7456 36.6332C87.6256 36.6332 87.529 36.6599 87.4556 36.7132C87.389 36.7666 87.339 36.8432 87.3056 36.9432C87.279 37.0366 87.2656 37.1466 87.2656 37.2732L87.2456 37.6232L85.9456 37.5732C85.9723 36.9066 86.139 36.4166 86.4456 36.1032C86.7523 35.7832 87.2223 35.6232 87.8556 35.6232C88.4356 35.6232 88.859 35.7832 89.1256 36.1032C89.3923 36.4232 89.5256 36.8566 89.5256 37.4032V40.0732C89.5256 40.2866 89.529 40.4799 89.5356 40.6532C89.549 40.8266 89.5623 40.9832 89.5756 41.1232C89.5956 41.2632 89.6123 41.3866 89.6256 41.4932H88.3956C88.3756 41.3599 88.3523 41.2099 88.3256 41.0432C88.299 40.8699 88.279 40.7432 88.2656 40.6632C88.199 40.8966 88.0723 41.1099 87.8856 41.3032C87.699 41.4899 87.4456 41.5832 87.1256 41.5832ZM87.6256 40.5732C87.7123 40.5732 87.7923 40.5532 87.8656 40.5132C87.939 40.4666 88.0056 40.4132 88.0656 40.3532C88.1256 40.2932 88.1723 40.2399 88.2056 40.1932V38.5832C88.0523 38.6699 87.909 38.7566 87.7756 38.8432C87.649 38.9299 87.539 39.0266 87.4456 39.1332C87.3523 39.2332 87.279 39.3432 87.2256 39.4632C87.1723 39.5832 87.1456 39.7232 87.1456 39.8832C87.1456 40.0966 87.1856 40.2666 87.2656 40.3932C87.3523 40.5132 87.4723 40.5732 87.6256 40.5732ZM90.5113 41.4932V35.7132H91.8213V36.2132C92.0213 35.9999 92.238 35.8466 92.4713 35.7532C92.7047 35.6532 92.9413 35.6032 93.1813 35.6032C93.408 35.6032 93.6047 35.6599 93.7713 35.7732C93.9447 35.8866 94.0713 36.0666 94.1513 36.3132C94.3713 36.0599 94.6047 35.8799 94.8513 35.7732C95.098 35.6599 95.3513 35.6032 95.6113 35.6032C95.818 35.6032 96.0013 35.6566 96.1613 35.7632C96.3213 35.8632 96.448 36.0166 96.5413 36.2232C96.6347 36.4232 96.6813 36.6766 96.6813 36.9832V41.4932H95.3813V37.1032C95.3813 36.8832 95.3447 36.7332 95.2713 36.6532C95.198 36.5666 95.0947 36.5232 94.9613 36.5232C94.8547 36.5232 94.7347 36.5532 94.6013 36.6132C94.4747 36.6732 94.358 36.7566 94.2513 36.8632C94.2513 36.8832 94.2513 36.9032 94.2513 36.9232C94.2513 36.9366 94.2513 36.9566 94.2513 36.9832V41.4932H92.9613V37.1032C92.9613 36.8832 92.9213 36.7332 92.8413 36.6532C92.768 36.5666 92.6647 36.5232 92.5313 36.5232C92.4247 36.5232 92.308 36.5532 92.1813 36.6132C92.0547 36.6732 91.9347 36.7566 91.8213 36.8632V41.4932H90.5113ZM97.6891 43.3932V35.7132H99.0491V36.1532C99.2157 35.9932 99.3991 35.8666 99.5991 35.7732C99.7991 35.6732 100.009 35.6232 100.229 35.6232C100.489 35.6232 100.702 35.6832 100.869 35.8032C101.036 35.9232 101.166 36.0832 101.259 36.2832C101.352 36.4766 101.416 36.6866 101.449 36.9132C101.489 37.1332 101.509 37.3466 101.509 37.5532V39.5132C101.509 39.8932 101.462 40.2399 101.369 40.5532C101.282 40.8666 101.139 41.1166 100.939 41.3032C100.746 41.4899 100.486 41.5832 100.159 41.5832C99.9524 41.5832 99.7557 41.5332 99.5691 41.4332C99.3891 41.3332 99.2157 41.2066 99.0491 41.0532V43.3932H97.6891ZM99.6491 40.6332C99.7957 40.6332 99.9024 40.5866 99.9691 40.4932C100.042 40.3932 100.089 40.2632 100.109 40.1032C100.136 39.9366 100.149 39.7566 100.149 39.5632V37.4932C100.149 37.3132 100.136 37.1532 100.109 37.0132C100.082 36.8666 100.032 36.7499 99.9591 36.6632C99.8857 36.5766 99.7791 36.5332 99.6391 36.5332C99.5324 36.5332 99.4257 36.5599 99.3191 36.6132C99.2191 36.6599 99.1291 36.7166 99.0491 36.7832V40.4332C99.1357 40.4932 99.2291 40.5432 99.3291 40.5832C99.4291 40.6166 99.5357 40.6332 99.6491 40.6332Z" fill="#333333"/>
<path d="M4.98132 20.0399L8.43248 23.204H1.53017L4.98132 20.0399Z" fill="#E6DECE"/>
<path d="M12.9514 20.0399L16.4026 23.204H9.50026L12.9514 20.0399Z" fill="#E6DECE"/>
<path d="M20.9215 20.0399L24.3727 23.204H17.4704L20.9215 20.0399Z" fill="#E6DECE"/>
<path d="M28.8915 20.0399L32.3427 23.204H25.4404L28.8915 20.0399Z" fill="#E6DECE"/>
<path d="M36.8617 20.0399L40.3128 23.204H33.4105L36.8617 20.0399Z" fill="#E6DECE"/>
<path d="M44.8318 20.0399L48.2829 23.204H41.3806L44.8318 20.0399Z" fill="#E6DECE"/>
<path d="M52.8019 20.0399L56.253 23.204H49.3507L52.8019 20.0399Z" fill="#E6DECE"/>
<path d="M60.772 20.0399L64.2231 23.204H57.3208L60.772 20.0399Z" fill="#E6DECE"/>
<path d="M68.7421 20.0399L72.1932 23.204H65.2909L68.7421 20.0399Z" fill="#E6DECE"/>
<path d="M76.7122 20.0399L80.1633 23.204H73.261L76.7122 20.0399Z" fill="#E6DECE"/>
<path d="M84.6823 20.0399L88.1334 23.204H81.2311L84.6823 20.0399Z" fill="#E6DECE"/>
<path d="M92.6523 20.0399L96.1035 23.204H89.2012L92.6523 20.0399Z" fill="#E6DECE"/>
<path d="M100.622 20.0399L104.074 23.204H97.1713L100.622 20.0399Z" fill="#E6DECE"/>
<path d="M108.593 20.0399L112.044 23.204H105.141L108.593 20.0399Z" fill="#E6DECE"/>
<path d="M8.96637 22.1493L12.4175 18.9851H5.51522L8.96637 22.1493Z" fill="#4FABBF"/>
<path d="M16.9365 22.1493L20.3877 18.9851H13.4854L16.9365 22.1493Z" fill="#4FABBF"/>
<path d="M24.9066 22.1493L28.3577 18.9851H21.4554L24.9066 22.1493Z" fill="#4FABBF"/>
<path d="M32.8766 22.1493L36.3278 18.9851H29.4255L32.8766 22.1493Z" fill="#4FABBF"/>
<path d="M40.8467 22.1493L44.2979 18.9851H37.3956L40.8467 22.1493Z" fill="#4FABBF"/>
<path d="M48.8168 22.1493L52.268 18.9851H45.3657L48.8168 22.1493Z" fill="#4FABBF"/>
<path d="M56.7869 22.1493L60.2381 18.9851H53.3358L56.7869 22.1493Z" fill="#4FABBF"/>
<path d="M64.757 22.1493L68.2082 18.9851H61.3059L64.757 22.1493Z" fill="#4FABBF"/>
<path d="M72.7271 22.1493L76.1783 18.9851H69.276L72.7271 22.1493Z" fill="#4FABBF"/>
<path d="M80.6972 22.1493L84.1484 18.9851H77.2461L80.6972 22.1493Z" fill="#4FABBF"/>
<path d="M88.6673 22.1493L92.1184 18.9851H85.2161L88.6673 22.1493Z" fill="#4FABBF"/>
<path d="M96.6374 22.1493L100.089 18.9851H93.1862L96.6374 22.1493Z" fill="#4FABBF"/>
<path d="M104.608 22.1493L108.059 18.9851H101.156L104.608 22.1493Z" fill="#4FABBF"/>
</svg>
