<svg width="26" height="26" viewBox="0 0 26 26" fill="none" xmlns="http://www.w3.org/2000/svg">
<circle cx="13" cy="13" r="12.65" fill="white" stroke="#333333" stroke-width="0.7"/>
<path d="M5.9612 8.33618H16.2529L18.6279 11.5028H20.2112C21.09 11.5028 21.7945 12.2074 21.7945 13.0862V15.4612H20.2112C20.2112 16.0911 19.961 16.6952 19.5156 17.1406C19.0702 17.586 18.4661 17.8362 17.8362 17.8362C17.2063 17.8362 16.6022 17.586 16.1568 17.1406C15.7114 16.6952 15.4612 16.0911 15.4612 15.4612H10.7112C10.7112 16.0911 10.461 16.6952 10.0156 17.1406C9.57018 17.586 8.96609 17.8362 8.3362 17.8362C7.70631 17.8362 7.10222 17.586 6.65682 17.1406C6.21142 16.6952 5.9612 16.0911 5.9612 15.4612H4.37787V9.91952C4.37787 9.04076 5.08245 8.33618 5.9612 8.33618ZM5.56537 9.52368V11.5028H11.8987V9.52368H5.56537ZM13.0862 9.52368V11.5028H17.1554L15.6591 9.52368H13.0862ZM8.3362 14.2737C8.02126 14.2737 7.71921 14.3988 7.49651 14.6215C7.27381 14.8442 7.1487 15.1462 7.1487 15.4612C7.1487 15.7761 7.27381 16.0782 7.49651 16.3009C7.71921 16.5236 8.02126 16.6487 8.3362 16.6487C8.65115 16.6487 8.95319 16.5236 9.17589 16.3009C9.39859 16.0782 9.5237 15.7761 9.5237 15.4612C9.5237 15.1462 9.39859 14.8442 9.17589 14.6215C8.95319 14.3988 8.65115 14.2737 8.3362 14.2737ZM17.8362 14.2737C17.5213 14.2737 17.2192 14.3988 16.9965 14.6215C16.7738 14.8442 16.6487 15.1462 16.6487 15.4612C16.6487 15.7761 16.7738 16.0782 16.9965 16.3009C17.2192 16.5236 17.5213 16.6487 17.8362 16.6487C18.1511 16.6487 18.4532 16.5236 18.6759 16.3009C18.8986 16.0782 19.0237 15.7761 19.0237 15.4612C19.0237 15.1462 18.8986 14.8442 18.6759 14.6215C18.4532 14.3988 18.1511 14.2737 17.8362 14.2737Z" fill="#333333"/>
</svg>
