<svg width="26" height="26" viewBox="0 0 26 26" fill="none" xmlns="http://www.w3.org/2000/svg">
<circle cx="13" cy="13" r="12.65" fill="white" stroke="#333333" stroke-width="0.7"/>
<path d="M11.682 17.1402C11.6864 17.0439 11.8456 17.0054 11.892 17.0894C12.1143 17.4832 12.4923 18.0615 12.9219 18.3249C13.3506 18.5874 14.0375 18.6627 14.489 18.6819C14.5853 18.6863 14.6238 18.8447 14.5398 18.8919C14.146 19.1142 13.5676 19.4922 13.3043 19.9209C13.0418 20.3497 12.9665 21.0374 12.9473 21.4889C12.9429 21.5852 12.7836 21.6228 12.7373 21.5388C12.515 21.145 12.137 20.5675 11.7083 20.3042C11.2795 20.0408 10.5918 19.9664 10.1403 19.9472C10.044 19.9428 10.0064 19.7835 10.0904 19.7372C10.4841 19.5149 11.0616 19.1369 11.325 18.7073C11.5884 18.2785 11.6628 17.5908 11.682 17.1402ZM18.8701 16.2652C18.8631 16.1689 18.6951 16.1287 18.6453 16.2109C18.4948 16.4585 18.2769 16.756 18.0354 16.9048C17.7939 17.0535 17.429 17.1113 17.1403 17.134C17.044 17.141 17.0046 17.309 17.086 17.3589C17.3336 17.5094 17.632 17.7264 17.7799 17.9688C17.9286 18.2103 17.9873 18.5752 18.0091 18.8639C18.017 18.9602 18.1841 18.9995 18.2349 18.9173C18.3854 18.6705 18.6024 18.3722 18.8448 18.2243C19.0863 18.0755 19.4503 18.0169 19.739 17.995C19.8353 17.9872 19.8755 17.82 19.7933 17.7693C19.5456 17.6188 19.2473 17.4018 19.0994 17.1594C18.9506 16.9179 18.8929 16.5539 18.8701 16.2652ZM15.5556 6.19129L15.3439 5.92354C14.524 4.88842 14.1145 4.37042 13.6376 4.44654C13.1608 4.52354 12.9324 5.14304 12.4765 6.38292L12.3593 6.70317C12.2289 7.05579 12.1641 7.23167 12.0408 7.36117C11.9156 7.49067 11.7468 7.55804 11.4073 7.69367L11.0984 7.81704L10.8814 7.90454C9.83138 8.32454 9.30288 8.56342 9.2355 9.02717C9.16375 9.52154 9.66425 9.94504 10.6653 10.7912L10.9243 11.0099C11.2086 11.2505 11.3513 11.3713 11.4318 11.5349C11.514 11.6985 11.5254 11.8875 11.549 12.2655L11.57 12.6094C11.6514 13.9394 11.6925 14.6044 12.1248 14.8337C12.557 15.0629 13.0943 14.705 14.1688 13.9884L14.447 13.8029C14.7533 13.599 14.9055 13.4967 15.0796 13.4695C15.2546 13.4415 15.4314 13.4905 15.7849 13.5885L16.1069 13.6778C17.3511 14.0225 17.9733 14.1949 18.3119 13.8423C18.6514 13.4897 18.4834 12.8448 18.1456 11.5559L18.059 11.2225C17.9628 10.8559 17.9155 10.673 17.9418 10.4919C17.968 10.3108 18.066 10.1515 18.2611 9.83392L18.4388 9.54517C19.1265 8.42867 19.4704 7.87042 19.2473 7.42242C19.025 6.97617 18.3836 6.93504 17.1 6.85542L16.7684 6.83442C16.4035 6.81167 16.2215 6.80029 16.0631 6.71629C15.9056 6.63229 15.7884 6.48529 15.5556 6.19129ZM10.4203 14.3498C8.55038 15.2633 6.99375 16.7105 6.40663 18.4395C5.74863 14.3209 6.66213 11.6609 8.126 10.0072C8.252 10.2653 8.4165 10.4788 8.5635 10.6459C8.86975 10.9924 9.309 11.3634 9.75525 11.7405L10.0764 12.0118L10.2251 12.1387C10.2295 12.1947 10.2339 12.2612 10.2383 12.346L10.2645 12.7704C10.2995 13.3435 10.3345 13.9027 10.4203 14.3498Z" fill="#333333"/>
</svg>
