<svg width="26" height="26" viewBox="0 0 26 26" fill="none" xmlns="http://www.w3.org/2000/svg">
<circle cx="13" cy="13" r="12.65" fill="white" stroke="#333333" stroke-width="0.7"/>
<path d="M20.9515 18.8268C20.9515 18.9677 20.8955 19.1028 20.7959 19.2024C20.6963 19.302 20.5612 19.358 20.4203 19.358H10.8578C10.7169 19.358 10.5817 19.302 10.4821 19.2024C10.3825 19.1028 10.3265 18.9677 10.3265 18.8268C10.3265 18.6859 10.3825 18.5507 10.4821 18.4511C10.5817 18.3515 10.7169 18.2955 10.8578 18.2955H20.4203C20.5612 18.2955 20.6963 18.3515 20.7959 18.4511C20.8955 18.5507 20.9515 18.6859 20.9515 18.8268ZM19.3578 17.233C19.4987 17.233 19.6338 17.177 19.7334 17.0774C19.833 16.9778 19.889 16.8427 19.889 16.7018V14.3324C19.8876 13.7523 19.697 13.1885 19.3461 12.7266C18.9952 12.2647 18.5031 11.9299 17.9446 11.7731L13.9045 10.6442L12.4103 7.08282C12.3811 7.01292 12.3372 6.95009 12.2816 6.89855C12.2261 6.84701 12.1602 6.80795 12.0883 6.78399L11.725 6.66313C11.5654 6.6099 11.3953 6.59537 11.2289 6.62072C11.0625 6.64608 10.9046 6.7106 10.768 6.80897C10.6314 6.90735 10.5202 7.03675 10.4434 7.18654C10.3667 7.33633 10.3266 7.5022 10.3265 7.67051V9.62219L8.34295 9.05707L7.63838 7.10672C7.61107 7.03123 7.567 6.96292 7.5095 6.9069C7.45199 6.85089 7.38253 6.80864 7.30635 6.78332L6.94311 6.66247C6.78343 6.60935 6.61341 6.59492 6.44706 6.62038C6.28071 6.64583 6.12278 6.71043 5.98629 6.80887C5.84979 6.9073 5.73863 7.03675 5.66195 7.18655C5.58528 7.33635 5.54528 7.50223 5.54526 7.67051V11.3707C5.54653 11.9499 5.73657 12.513 6.08659 12.9746C6.43661 13.4362 6.92753 13.7711 7.48498 13.9286L19.2143 17.2131C19.261 17.2262 19.3093 17.233 19.3578 17.233Z" fill="#333333"/>
</svg>
