<svg width="26" height="26" viewBox="0 0 26 26" fill="none" xmlns="http://www.w3.org/2000/svg">
<circle cx="13" cy="13" r="12.65" fill="white" stroke="#333333" stroke-width="0.7"/>
<path d="M15.2846 16.1269L15.275 16.167V16.2082C15.275 16.572 15.1286 16.9218 14.8666 17.1805C14.6044 17.4393 14.2478 17.5855 13.875 17.5855H12.125C11.7522 17.5855 11.3956 17.4393 11.1334 17.1805C10.8714 16.9218 10.725 16.572 10.725 16.2082V16.167L10.7154 16.1269C10.1748 13.8636 9.85 12.0903 9.85 10.1628C9.85 7.43131 10.4921 5.08196 11.4132 3.78785C11.9252 3.6672 12.4517 3.60366 13 3.60366C13.5483 3.60366 14.0748 3.6672 14.5868 3.78785C15.5079 5.08196 16.15 7.43132 16.15 10.1628C16.15 12.0903 15.8252 13.8636 15.2846 16.1269ZM12.125 21.9037C11.7522 21.9037 11.3956 21.7575 11.1334 21.4987C10.8714 21.24 10.725 20.8902 10.725 20.5264V19.1491H15.275V20.5264C15.275 20.8902 15.1286 21.24 14.8666 21.4987C14.6044 21.7575 14.2478 21.9037 13.875 21.9037H12.125ZM19.65 9.29912C19.65 10.6133 19.2601 12.2731 18.5789 13.7409C18.0994 14.7743 17.4915 15.6784 16.8041 16.3014C17.0274 15.6421 17.2129 14.8856 17.3572 14.0982C17.5938 12.808 17.725 11.4072 17.725 10.1628C17.725 8.12459 17.3729 6.23292 16.7709 4.71797C17.5224 5.15252 18.1501 5.64328 18.625 6.22643C19.2705 7.01906 19.65 8.00225 19.65 9.29912ZM6.35 9.29912C6.35 8.00225 6.72952 7.01906 7.37499 6.22643C7.84988 5.64328 8.47758 5.15252 9.22906 4.71797C8.62709 6.23292 8.275 8.12458 8.275 10.1628C8.275 11.4072 8.4062 12.808 8.64277 14.0982C8.78714 14.8856 8.97258 15.6421 9.19588 16.3014C8.50852 15.6784 7.90063 14.7743 7.42107 13.7409C6.73987 12.2731 6.35 10.6133 6.35 9.29912Z" fill="#333333" stroke="#333333" stroke-width="0.7"/>
</svg>
