<svg width="26" height="26" viewBox="0 0 26 26" fill="none" xmlns="http://www.w3.org/2000/svg">
<circle cx="13" cy="13" r="12.65" fill="white" stroke="#333333" stroke-width="0.7"/>
<path d="M16.1703 18.8265C16.1703 18.9674 16.1143 19.1026 16.0147 19.2022C15.915 19.3018 15.7799 19.3578 15.639 19.3578H6.07652C5.93563 19.3578 5.8005 19.3018 5.70087 19.2022C5.60124 19.1026 5.54527 18.9674 5.54527 18.8265C5.54527 18.6856 5.60124 18.5505 5.70087 18.4509C5.8005 18.3513 5.93563 18.2953 6.07652 18.2953H15.639C15.7799 18.2953 15.915 18.3513 16.0147 18.4509C16.1143 18.5505 16.1703 18.6856 16.1703 18.8265ZM20.8393 10.2442L19.6015 8.65775L19.5935 8.64779C19.1932 8.15475 18.6289 7.82223 18.0036 7.71102C17.3783 7.59982 16.7339 7.71737 16.1882 8.04217L12.7636 10.0862L9.18168 8.76865C9.06197 8.72402 8.93018 8.72402 8.81047 8.76865L8.33433 8.94994L8.31308 8.95857C8.15019 9.02849 8.00739 9.13806 7.89767 9.27728C7.78795 9.41651 7.71481 9.58098 7.68491 9.7557C7.65501 9.93042 7.6693 10.1098 7.72647 10.2776C7.78365 10.4454 7.88189 10.5962 8.01226 10.7163L9.46324 12.1235L8.12383 12.9337L6.24719 12.3001C6.11437 12.2554 5.96925 12.2649 5.84344 12.3267L5.64422 12.4243C5.48483 12.4955 5.34545 12.6049 5.2384 12.7428C5.13135 12.8807 5.05993 13.0429 5.03045 13.215C5.00098 13.387 5.01435 13.5637 5.0694 13.7294C5.12444 13.8951 5.21946 14.0446 5.34605 14.1648L7.73668 16.507L7.74465 16.5149C8.23434 16.9778 8.88239 17.236 9.55621 17.2368C10.0292 17.236 10.4936 17.1095 10.9016 16.8702L20.6905 11.0265C20.7551 10.9879 20.8108 10.936 20.8538 10.8743C20.8969 10.8125 20.9263 10.7424 20.9402 10.6684C20.954 10.5944 20.952 10.5184 20.9343 10.4452C20.9166 10.3721 20.8835 10.3036 20.8373 10.2442H20.8393Z" fill="#333333"/>
</svg>
