<svg width="33" height="33" viewBox="0 0 33 33" fill="none" xmlns="http://www.w3.org/2000/svg">
<path d="M2.75 2.75H30.25" stroke="#333333" stroke-width="1.3" stroke-linecap="round" stroke-linejoin="round"/>
<path d="M26.125 2.75H6.875C6.11561 2.75 5.5 3.36561 5.5 4.125V28.875C5.5 29.6344 6.11561 30.25 6.875 30.25H26.125C26.8844 30.25 27.5 29.6344 27.5 28.875V4.125C27.5 3.36561 26.8844 2.75 26.125 2.75Z" stroke="#333333" stroke-width="1.3" stroke-linejoin="round"/>
<path d="M13.75 22H19.25V30.25H13.75V22Z" stroke="#333333" stroke-width="1.3" stroke-linecap="round" stroke-linejoin="round"/>
<path d="M10.3125 8.25H11.6875M10.3125 12.375H11.6875M15.8125 8.25H17.1875M15.8125 12.375H17.1875M21.3125 8.25H22.6875M21.3125 12.375H22.6875" stroke="#333333" stroke-width="1.3" stroke-linecap="round"/>
<path d="M2.75 30.25H30.25M19.25 22H20.625C21.0045 22 21.3194 21.6893 21.2465 21.3166C20.867 19.3641 18.8863 17.875 16.5 17.875C14.1144 17.875 12.133 19.3634 11.7535 21.3166C11.6806 21.6893 11.9955 22 12.375 22H13.75" stroke="#333333" stroke-width="1.3" stroke-linecap="round" stroke-linejoin="round"/>
</svg>
