<svg width="26" height="26" viewBox="0 0 26 26" fill="none" xmlns="http://www.w3.org/2000/svg">
<circle cx="13" cy="13" r="12.65" fill="white" stroke="#333333" stroke-width="0.7"/>
<path d="M18.6494 8.73299H16.5244V7.31632C16.5244 6.53007 15.894 5.89966 15.1078 5.89966H10.8578C10.0715 5.89966 9.44111 6.53007 9.44111 7.31632V8.73299H7.31611C6.52986 8.73299 5.89944 9.36341 5.89944 10.1497V17.9413C5.89944 18.7276 6.52986 19.358 7.31611 19.358H18.6494C19.4357 19.358 20.0661 18.7276 20.0661 17.9413V10.1497C20.0661 9.36341 19.4357 8.73299 18.6494 8.73299ZM10.8578 7.31632H15.1078V8.73299H10.8578V7.31632ZM18.6494 17.9413H7.31611V16.5247H18.6494V17.9413ZM18.6494 14.3997H7.31611V10.1497H9.44111V11.5663H10.8578V10.1497H15.1078V11.5663H16.5244V10.1497H18.6494V14.3997Z" fill="#333333"/>
</svg>
