<svg width="26" height="26" viewBox="0 0 26 26" fill="none" xmlns="http://www.w3.org/2000/svg">
<circle cx="13" cy="13" r="12.65" fill="white" stroke="#333333" stroke-width="0.7"/>
<path d="M11.3333 5.91675C11.3333 5.22508 11.8917 4.66675 12.5833 4.66675C13.275 4.66675 13.8333 5.22508 13.8333 5.91675C13.8333 6.60841 13.275 7.16675 12.5833 7.16675C11.8917 7.16675 11.3333 6.60841 11.3333 5.91675ZM21.3333 9.66675V12.5834L20.475 12.8751C20.4048 13.3714 20.1581 13.8257 19.78 14.1548C19.402 14.4839 18.9179 14.6657 18.4167 14.6667H18.35C18.2333 15.2334 17.9583 15.7417 17.5833 16.1501V21.3334H15.5V17.1667H15.2917C15.1167 17.1667 14.9417 17.1417 14.775 17.1167L11.075 16.5001L10.1417 18.1751L10.7667 21.3334H8.65001L8.00001 18.2084C7.97501 17.9584 8.00001 17.7084 8.13334 17.4917L8.98334 15.9834C8.56969 15.7533 8.22308 15.4194 7.97761 15.0147C7.73214 14.6099 7.59626 14.1483 7.58334 13.6751C7.55001 13.8001 7.53334 13.9834 7.55834 14.2501C7.58334 14.6167 7.67501 15.1584 7.61668 15.7584C7.58334 16.3584 7.30834 16.9751 6.95834 17.3834C6.60001 17.7917 6.20834 18.0751 5.79168 18.2917L5.20835 17.7084C5.36668 17.3167 5.52501 16.9667 5.55834 16.6417C5.60834 16.3334 5.55001 16.0834 5.45835 15.8584L5.01668 14.9167C4.84168 14.4917 4.62501 13.8751 4.66668 13.1501C4.69168 12.4417 5.08335 11.5167 5.82501 11.0084C6.57501 10.5001 7.38335 10.4251 8.04168 10.5667C8.45835 10.6501 8.88335 10.8501 9.25001 11.1334C9.55834 10.9917 9.91668 10.9167 10.2917 10.9167H10.5V9.75841C10.5 8.92508 11.0667 8.15842 11.8833 8.02508C12.1226 7.98381 12.368 7.9953 12.6023 8.05877C12.8367 8.12223 13.0543 8.23613 13.2401 8.3925C13.4258 8.54886 13.5751 8.74392 13.6776 8.96402C13.7801 9.18412 13.8332 9.42396 13.8333 9.66675V10.9167H15.0833V10.5001C15.0833 8.65841 16.575 7.16675 18.4167 7.16675H21.3333L20.5917 8.28342C21.0417 8.58342 21.3333 9.09175 21.3333 9.66675ZM19.6667 12.3334L18.8 10.9501C18.6917 10.7751 18.4167 10.8501 18.4167 11.0584V13.8334C19.1083 13.8334 19.6667 13.2751 19.6667 12.5834V12.3334Z" fill="#333333"/>
</svg>
